<svg width="19" height="18" viewBox="0 0 19 18" fill="none" xmlns="http://www.w3.org/2000/svg">
<g clip-path="url(#clip0_4_537)">
<path d="M2.35132 4.44482H3.91888H16.4594" stroke="#FF3131" stroke-width="2" stroke-linecap="round" stroke-linejoin="round"/>
<path d="M6.27029 4.44476V2.96317C6.27029 2.57022 6.43544 2.19337 6.72941 1.91552C7.02339 1.63766 7.4221 1.48157 7.83785 1.48157H10.973C11.3887 1.48157 11.7874 1.63766 12.0814 1.91552C12.3754 2.19337 12.5405 2.57022 12.5405 2.96317V4.44476M14.8919 4.44476V14.8159C14.8919 15.2089 14.7267 15.5857 14.4327 15.8636C14.1388 16.1414 13.7401 16.2975 13.3243 16.2975H5.48651C5.07076 16.2975 4.67205 16.1414 4.37807 15.8636C4.0841 15.5857 3.91895 15.2089 3.91895 14.8159V4.44476H14.8919Z" stroke="#FF3131" stroke-width="2" stroke-linecap="round" stroke-linejoin="round"/>
</g>
<defs>
<clipPath id="clip0_4_537">
<rect width="18.8107" height="17.7792" fill="white"/>
</clipPath>
</defs>
</svg>
