<svg width="19" height="18" viewBox="0 0 19 18" fill="none" xmlns="http://www.w3.org/2000/svg">
<g clip-path="url(#clip0_4_540)">
<path d="M13.3243 2.22234C13.5302 2.02777 13.7746 1.87344 14.0435 1.76814C14.3125 1.66284 14.6008 1.60864 14.8919 1.60864C15.183 1.60864 15.4713 1.66284 15.7403 1.76814C16.0092 1.87344 16.2536 2.02777 16.4595 2.22234C16.6653 2.41691 16.8286 2.64789 16.94 2.9021C17.0514 3.15632 17.1088 3.42878 17.1088 3.70394C17.1088 3.9791 17.0514 4.25156 16.94 4.50577C16.8286 4.75999 16.6653 4.99097 16.4595 5.18554L5.87842 15.1863L1.56763 16.2975L2.7433 12.2231L13.3243 2.22234Z" stroke="#007B8D" stroke-width="2" stroke-linecap="round" stroke-linejoin="round"/>
</g>
<defs>
<clipPath id="clip0_4_540">
<rect width="18.8107" height="17.7792" fill="white"/>
</clipPath>
</defs>
</svg>
