<svg width="16" height="16" viewBox="0 0 16 16" fill="none" xmlns="http://www.w3.org/2000/svg">
<path fill-rule="evenodd" clip-rule="evenodd" d="M7.99992 14.6667C4.31992 14.6667 1.33325 11.6867 1.33325 8.00004C1.33325 4.32004 4.31992 1.33337 7.99992 1.33337C11.6866 1.33337 14.6666 4.32004 14.6666 8.00004C14.6666 11.6867 11.6866 14.6667 7.99992 14.6667ZM10.1266 10.4734C10.2066 10.52 10.2933 10.5467 10.3866 10.5467C10.5533 10.5467 10.7199 10.46 10.8133 10.3C10.9533 10.0667 10.8799 9.76004 10.6399 9.61337L8.26658 8.20004V5.12004C8.26658 4.84004 8.03992 4.62004 7.76658 4.62004C7.49325 4.62004 7.26658 4.84004 7.26658 5.12004V8.48671C7.26658 8.66004 7.35992 8.82004 7.51325 8.91337L10.1266 10.4734Z" fill="#007B8D"/>
</svg>
